<svg width="13" height="13" viewBox="0 0 13 13" fill="none" xmlns="http://www.w3.org/2000/svg">
<path d="M6.28011 6.06527L6.30506 6.0531C6.3831 6.01412 6.47066 5.99831 6.5574 6.00756C6.64414 6.0168 6.72641 6.0507 6.79447 6.10526C6.86253 6.15981 6.91353 6.23272 6.94144 6.31537C6.96935 6.39801 6.97299 6.48692 6.95193 6.57157L6.52109 8.29735C6.49988 8.38204 6.50341 8.47103 6.53125 8.55378C6.55909 8.63652 6.61008 8.70955 6.67817 8.76419C6.74627 8.81883 6.8286 8.85279 6.91541 8.86205C7.00223 8.87131 7.08987 8.85547 7.16796 8.81642L7.19291 8.80364M12.2133 6.52167C12.2133 7.24088 12.0716 7.95306 11.7964 8.61753C11.5211 9.28199 11.1177 9.88575 10.6092 10.3943C10.1006 10.9029 9.49684 11.3063 8.83237 11.5815C8.1679 11.8568 7.45573 11.9984 6.73651 11.9984C6.01729 11.9984 5.30512 11.8568 4.64065 11.5815C3.97618 11.3063 3.37243 10.9029 2.86387 10.3943C2.3553 9.88575 1.95189 9.28199 1.67666 8.61753C1.40143 7.95306 1.25977 7.24088 1.25977 6.52167C1.25977 5.06914 1.83678 3.67611 2.86387 2.64902C3.89096 1.62193 5.28399 1.04492 6.73651 1.04492C8.18903 1.04492 9.58206 1.62193 10.6092 2.64902C11.6362 3.67611 12.2133 5.06914 12.2133 6.52167ZM6.73651 4.23969H6.74138V4.24456H6.73651V4.23969Z" stroke="#AB2222" stroke-width="0.912791" stroke-linecap="round" stroke-linejoin="round"/>
</svg>
