<svg width="688" height="489" viewBox="0 0 688 489" fill="none" xmlns="http://www.w3.org/2000/svg">
<g clip-path="url(#clip0_640_385)">
<path d="M555.597 318.61L544.92 287.264L527.091 293.343L490.674 186.403L450.075 200.246L450.197 200.61L437.102 257.181L418.471 337.659L429.34 361.676L467.676 348.602L481.631 343.841L497.167 338.54L509.85 375.796L550.451 361.953L537.766 324.697L555.597 318.61ZM481.775 308.801L472.565 311.942L454.928 317.958L466.966 258.14L468.098 253.176L486.489 307.191L481.775 308.801Z" fill="#2525BD"/>
<path opacity="0.25" d="M537.766 324.695L550.451 361.951L524.591 350.881L483.26 201.843L468.098 253.177L461.078 282.253L437.104 257.179L450.198 200.609L450.076 200.245L490.674 186.403L527.09 293.344L544.919 287.264L555.597 318.61L537.766 324.695Z" fill="#010101"/>
<path opacity="0.25" d="M481.631 343.839L467.676 348.601L469.726 319.818V314.571L472.566 311.942L474.392 310.253L481.774 308.801C481.775 308.801 481.318 329.942 481.631 343.839Z" fill="#010101"/>
<path d="M481.777 308.8C481.777 308.8 478.288 304.416 472.199 304.923C466.11 305.429 462.712 307.715 462.508 314.063C462.303 320.412 463.816 352.404 462.426 365.101C461.036 377.797 469.685 379.066 470.181 369.671C470.678 360.277 467.003 330.822 469.727 325.998C472.453 321.174 470.794 331.33 473.653 334.632C476.513 337.932 479.556 332.092 476.513 324.221C473.467 316.349 481.777 308.8 481.777 308.8Z" fill="url(#paint0_linear_640_385)"/>
<path d="M469.177 195.415C468.761 197.018 468.066 199.081 466.988 201.842C465.45 205.801 463.128 211.197 459.706 218.72C459.621 222.541 458.404 246.909 458.073 252.518C458.03 253.203 458.003 253.608 457.993 253.662C457.945 253.907 457.064 254.378 456.104 254.618C455.196 254.853 454.225 254.884 453.807 254.329C452.948 253.186 447.145 230.141 446.863 224.715C446.575 219.287 446.292 220.526 452.948 198.914C451.33 199.673 440.846 199.39 440.846 199.39C440.846 199.39 442.767 225.858 442.778 226.049C442.778 226.076 442.762 226.14 442.724 226.231C442.602 226.594 442.217 227.402 441.801 227.808C441.614 227.994 441.422 228.1 441.245 228.047C441.144 228.021 440.898 227.796 440.541 227.417C438.529 225.279 433.009 218.089 430.018 211.383C426.5 203.481 425.64 197.956 428.972 192.437C432.304 186.913 449.173 186.49 449.173 186.49C450.241 186.789 452.696 187.083 455.125 187.66C455.84 187.826 456.555 188.024 457.229 188.248C460.924 189.477 467.964 191.036 469.481 190.161C469.818 191.34 469.892 192.718 469.177 195.415Z" fill="#6561AB"/>
<path d="M483.159 177.015C482.491 177.394 474.74 177.106 469.502 175.107C469.529 176.031 469.646 177.485 469.779 179.136C469.988 181.738 470.229 184.832 470.17 187.086C470.137 188.695 469.951 189.88 469.502 190.153C469.496 190.159 469.491 190.164 469.48 190.164C468.675 190.629 466.314 190.404 463.72 189.913C462.043 189.592 460.271 189.16 458.761 188.726C458.21 188.566 457.694 188.406 457.229 188.251C454.261 187.257 450.557 186.877 449.173 186.492C448.826 186.396 448.628 186.305 448.616 186.198C448.575 185.674 449.903 184.489 450.528 183.249C450.602 183.094 450.703 182.864 450.816 182.57C451.323 181.272 452.119 178.814 452.503 177.249C452.732 176.325 452.818 175.716 452.616 175.822C451.997 176.153 448.333 183.008 447.906 183.008C447.757 183.008 447.02 182.586 446.144 181.993C444.671 180.993 442.819 179.524 442.776 178.825C442.765 178.728 442.792 178.648 442.862 178.584C443.721 177.772 450.282 166.728 452.662 164.372C453.778 163.26 455.097 162.593 456.17 162.198C457.371 161.749 458.279 161.647 458.279 161.647C459.693 161.598 461.118 161.786 462.507 162.139C467.226 163.319 471.556 166.301 474.022 167.775C477.209 169.677 479.398 169.154 480.204 169.63C481.018 170.112 483.82 176.631 483.159 177.015Z" fill="#F26647"/>
<path d="M470.171 187.086C465.783 187.14 456.029 186.749 450.818 182.571C451.326 181.273 452.121 178.815 452.506 177.25C452.506 177.25 462.803 180.375 469.781 179.136C469.99 181.738 470.23 184.832 470.171 187.086Z" fill="#F69181"/>
<path opacity="0.25" d="M462.511 162.141C462.341 163.968 461.694 165.934 459.707 165.78C456.905 165.561 456.302 163.268 456.174 162.2C457.375 161.752 458.283 161.649 458.283 161.649C459.697 161.6 461.122 161.788 462.511 162.141Z" fill="#010101"/>
<path d="M461.324 158.159C461.324 158.159 460.849 156.209 459.893 155.205C459.12 156.466 456.135 157.112 453.834 157.279C452.745 157.359 451.805 157.332 451.33 157.209C449.713 150.92 454.757 148.163 457.566 147.971C460.368 147.778 462.894 149.868 462.131 153.058C464.649 155.542 461.324 158.159 461.324 158.159Z" fill="#321212"/>
<path d="M461.323 158.159C461.179 158.576 460.954 159.309 460.57 159.992H460.564C459.935 161.13 458.878 162.14 457.047 161.397C456.983 161.37 456.919 161.344 456.86 161.312C455.318 160.611 454.517 159.249 454.112 158.176C453.984 157.838 453.893 157.529 453.834 157.278C456.134 157.112 459.12 156.466 459.893 155.205C459.936 155.254 459.979 155.302 460.021 155.349C460.891 156.386 461.323 158.159 461.323 158.159Z" fill="url(#paint1_linear_640_385)"/>
<path d="M461.083 163.016C460.8 164.779 457.896 164.684 457.58 163.54C457.414 162.947 457.227 162.376 457.083 161.958C456.956 161.569 456.859 161.317 456.859 161.317V161.312C456.919 161.344 456.982 161.37 457.046 161.397C458.878 162.14 459.934 161.131 460.564 159.992H460.569C460.372 160.387 460.9 160.885 461.077 161.819C461.142 162.156 461.158 162.552 461.083 163.016Z" fill="url(#paint2_linear_640_385)"/>
<path d="M446.002 232.811C445.719 235.001 434.396 243.571 434.588 242.048C434.774 240.525 440.541 227.419 440.541 227.419C440.898 227.798 441.145 228.024 441.244 228.049C441.816 228.216 442.541 226.762 442.723 226.233C444.245 228.146 446.257 230.855 446.002 232.811Z" fill="#262166"/>
<path d="M453.805 272.171C451.141 266.453 453.805 254.33 453.805 254.33C454.66 255.474 457.895 254.138 457.99 253.663C458.002 253.61 458.027 253.203 458.07 252.519C458.07 252.519 458.497 258.328 459.005 263.248C459.512 268.169 456.47 277.882 453.805 272.171Z" fill="#262166"/>
<path opacity="0.25" d="M452.947 198.916C451.33 199.675 440.845 199.391 440.845 199.391C440.845 199.391 442.767 225.859 442.777 226.05C442.777 226.077 442.761 226.141 442.724 226.232C442.602 226.596 442.217 227.403 441.801 227.809C439.869 218.752 436.015 201.388 439.088 198.407C443.024 194.597 453.679 193.583 453.833 194.416C453.989 195.255 452.947 198.916 452.947 198.916Z" fill="#010101"/>
<path d="M445.404 186.408C445.249 186.728 445.169 186.996 445.218 187.172C445.447 188.059 444.23 199.167 444.673 200.31C445.116 201.454 445.372 205.07 445.116 207.357C444.859 209.645 440.104 211.039 440.104 209.073C440.104 207.102 440.675 202.47 440.867 200.69C441.058 198.917 439.282 186.061 439.757 184.282C440.067 183.122 441.257 181.157 442.047 179.933C442.468 179.277 442.778 178.827 442.778 178.827C442.849 179.943 447.519 183.011 447.908 183.011C447.907 183.009 446.028 185.115 445.404 186.408Z" fill="url(#paint3_linear_640_385)"/>
<path opacity="0.25" d="M469.177 195.415C467.078 195.261 464.719 194.341 463.075 192.69C461.163 190.777 457.976 189.004 455.125 187.663C455.84 187.829 456.556 188.026 457.229 188.251C460.924 189.479 467.964 191.039 469.481 190.164C469.818 191.34 469.892 192.718 469.177 195.415Z" fill="#010101"/>
<path opacity="0.25" d="M466.987 201.843C465.45 205.802 463.128 211.198 459.706 218.721C459.621 222.542 458.404 246.91 458.073 252.519C458.03 253.204 458.003 253.609 457.993 253.663C457.945 253.908 457.064 254.379 456.104 254.619C456.322 246.402 456.034 228.514 457.423 223.193C459.081 216.824 466.523 202.719 466.987 201.843Z" fill="#010101"/>
<path opacity="0.25" d="M458.761 188.726C458.211 188.566 457.694 188.406 457.229 188.251C454.261 187.257 450.557 186.877 449.173 186.492C448.826 186.396 448.628 186.305 448.617 186.198C448.575 185.674 449.903 184.489 450.528 183.249C451.147 182.009 453.235 175.486 452.616 175.822C451.997 176.153 448.333 183.008 447.906 183.008C447.757 183.008 447.02 182.586 446.145 181.993C446.235 181.838 446.336 181.682 446.449 181.517C448.729 178.152 452.472 173.963 453.106 170.346C453.613 167.68 454.376 169.202 454.247 172.633C454.134 175.711 453.968 185.136 458.761 188.726Z" fill="#010101"/>
<path opacity="0.25" d="M469.502 190.153C469.497 190.159 469.492 190.164 469.48 190.164C468.676 190.628 466.315 190.404 463.721 189.913C468.36 185.259 465.828 172.655 466.555 173.302C467.409 174.061 469.501 175.108 469.501 175.108C469.599 178.538 470.982 189.25 469.502 190.153Z" fill="#010101"/>
<path opacity="0.25" d="M447.907 183.009C447.907 183.009 446.028 185.115 445.403 186.407C445.387 186.124 445.367 185.862 445.339 185.628C445.195 184.266 443.076 181.305 442.045 179.932C442.466 179.275 442.776 178.826 442.776 178.826C442.847 179.943 447.518 183.009 447.907 183.009Z" fill="#010101"/>
<path opacity="0.25" d="M460.021 155.349C458.879 157.877 455.521 158.17 454.112 158.176C453.984 157.838 453.893 157.529 453.834 157.278C456.134 157.112 459.12 156.466 459.893 155.205C459.936 155.254 459.979 155.302 460.021 155.349Z" fill="#010101"/>
<path opacity="0.25" d="M461.078 161.82C460.864 161.986 460.604 162.109 460.278 162.184C458.746 162.531 457.667 162.233 457.085 161.96C456.958 161.57 456.861 161.318 456.861 161.318V161.313C456.921 161.345 456.984 161.371 457.048 161.398C458.879 162.141 459.936 161.132 460.566 159.993H460.571C460.374 160.388 460.902 160.885 461.078 161.82Z" fill="#010101"/>
<path d="M476.26 -35.3035V201.843" stroke="#0A2533" stroke-width="0.810154" stroke-miterlimit="10"/>
<path d="M486.249 173.617C486.239 173.681 486.224 173.745 486.212 173.804C485.583 176.673 483.287 176.978 482.854 176.791C482.422 176.604 481.279 175.289 480.281 170.658C480.259 170.566 480.244 170.476 480.222 170.38C480.222 170.38 478.065 164.845 477.052 162.184C474.548 160.699 474.073 161.303 473.72 159.588C473.373 157.872 474.484 155.655 475.119 155.334C475.754 155.019 478.605 157.685 478.99 158.668C479.368 159.65 486.821 170.571 486.249 173.617Z" fill="url(#paint4_linear_640_385)"/>
<path opacity="0.25" d="M486.213 173.804C485.583 176.673 483.288 176.978 482.854 176.791C482.423 176.604 481.28 175.289 480.281 170.658C480.916 171.945 481.894 173.612 482.967 174.302C484.146 175.053 485.471 174.814 486.213 173.804Z" fill="#010101"/>
<path d="M402.156 323.798L396.038 292.527C391.512 269.398 382.783 252.526 369.853 241.903C356.917 231.287 340.94 227.841 321.918 231.571C302.897 235.3 289.407 244.479 281.457 259.101C273.503 273.73 271.795 292.648 276.338 315.858L282.477 347.248C286.988 370.297 295.706 387.131 308.641 397.748C314.102 402.23 320.114 405.435 326.675 407.355C335.648 409.99 345.653 410.219 356.687 408.059C362.405 406.942 367.627 405.324 372.34 403.207C383.251 398.314 391.482 390.764 397.035 380.549C404.991 365.921 406.694 347.002 402.156 323.798ZM363.964 365.771C361.872 372.184 357.446 376.052 350.687 377.376C343.688 378.749 338.002 376.783 333.615 371.473C330.625 367.855 328.068 362.486 325.948 355.364C325.948 355.358 325.948 355.353 325.948 355.353C325.943 355.342 325.943 355.331 325.937 355.315C324.955 352.014 324.069 348.332 323.278 344.277L314.69 300.376C312.677 288.846 312.672 279.945 314.668 273.672C316.665 267.401 321.084 263.59 327.923 262.255C333.139 261.229 337.639 262.111 341.418 264.889H341.424C342.711 265.84 343.916 267.004 345.038 268.394C349.453 273.86 352.869 282.772 355.282 295.119L363.594 337.6C365.935 349.967 366.058 359.354 363.964 365.771Z" fill="#F26647"/>
<path opacity="0.25" d="M367.035 371.638C368.798 374.352 371.14 392.806 372.342 403.208C367.627 405.325 362.405 406.944 356.689 408.06C345.655 410.218 335.65 409.99 326.676 407.356C327.043 406.528 327.38 405.662 327.668 404.775C333.268 387.651 326.27 356.754 325.949 355.364C328.068 362.486 330.625 367.855 333.617 371.473C338.004 376.783 343.69 378.749 350.689 377.376C357.447 376.05 361.873 372.183 363.966 365.771C366.059 359.355 365.935 349.967 363.598 337.599L355.286 295.118C352.873 282.771 349.455 273.859 345.042 268.393C343.92 267.004 342.715 265.84 341.428 264.888C354.929 267.538 365.895 309.373 370.464 329.553C375.027 349.737 375.412 359.071 367.035 371.638Z" fill="#010101"/>
<path d="M328.928 363.572C328.928 363.572 329.803 365.863 334.402 367.132C339.001 368.401 343.314 361.282 346.359 363.572C349.403 365.863 354.276 375.357 358.563 373.911C362.85 372.465 364.118 395.318 362.089 397.857C360.06 400.396 358.6 379.873 353.241 380.486C347.881 381.098 351.94 396.587 348.896 399.38C345.851 402.174 347.12 392.525 343.822 390.747C340.524 388.97 347.375 468.445 342.299 469.714C337.225 470.985 333.927 466.159 335.956 449.148C337.986 432.136 335.448 373.481 332.403 370.434C329.361 367.387 329.551 366.815 328.928 363.572Z" fill="#D1DE4B"/>
<path d="M327.668 -35.3035V241.952" stroke="#0A2533" stroke-width="0.810154" stroke-miterlimit="10"/>
<path d="M259.17 199.589L218.095 192.525L218.032 192.893L127.324 295.101L125.451 320.651L138.461 322.889L160.979 326.763L191.205 331.962L194.078 332.454L191.916 345.057L190.913 350.888L187.608 370.148L214.342 374.748L228.683 377.211L235.152 339.517L253.196 342.616L258.641 310.895L240.597 307.797L259.17 199.589ZM207.894 251.964L199.517 300.733L189.497 299.007L167.582 295.242L179.717 280.747L182.493 277.429L205.63 249.791L208.902 246.083L207.894 251.964Z" fill="#D1DE4B"/>
<path opacity="0.25" d="M191.207 331.962L160.98 326.763C164.541 314.993 168.983 298.771 167.584 295.241L189.5 299.006C190.904 301.348 192.014 304.568 192.313 308.988C192.846 316.81 191.682 324.798 191.207 331.962Z" fill="#010101"/>
<path d="M168.891 295.469C168.891 295.469 172.186 290.892 179.607 292.322C187.029 293.751 187.6 302.892 184.365 312.986C181.13 323.079 180.369 358.309 181.89 369.735C183.414 381.162 182.462 386.495 178.847 386.875C175.232 387.256 173.518 373.163 175.612 363.261C177.705 353.358 177.515 344.217 174.089 345.741C170.664 347.265 173.518 351.074 171.805 354.501C170.093 357.928 164.955 355.834 165.146 349.358C165.336 342.883 175.681 300.803 168.891 295.469Z" fill="#F26647"/>
<path opacity="0.25" d="M240.597 307.797L258.641 310.895L253.196 342.616L235.152 339.517L228.681 377.211L214.342 374.746L239.546 217.359L259.169 199.589L240.597 307.797Z" fill="#010101"/>
<path d="M228.318 -35.3035V210.008" stroke="#0A2533" stroke-width="0.810154" stroke-miterlimit="10"/>
<path d="M297.392 161.1C301.491 161.1 304.813 157.774 304.813 153.672C304.813 149.57 301.491 146.245 297.392 146.245C293.293 146.245 289.971 149.57 289.971 153.672C289.971 157.774 293.293 161.1 297.392 161.1Z" fill="#F47920"/>
<path d="M555.599 255.484C559.698 255.484 563.02 252.159 563.02 248.057C563.02 243.955 559.698 240.63 555.599 240.63C551.5 240.63 548.178 243.955 548.178 248.057C548.178 252.159 551.5 255.484 555.599 255.484Z" fill="#2525BD"/>
<path d="M167.583 201.257C171.682 201.257 175.005 197.932 175.005 193.83C175.005 189.728 171.682 186.403 167.583 186.403C163.485 186.403 160.162 189.728 160.162 193.83C160.162 197.932 163.485 201.257 167.583 201.257Z" fill="#D1DE4B"/>
<path d="M289.972 428.39C294.071 428.39 297.393 425.064 297.393 420.962C297.393 416.86 294.071 413.535 289.972 413.535C285.873 413.535 282.551 416.86 282.551 420.962C282.551 425.064 285.873 428.39 289.972 428.39Z" fill="#F26647"/>
<path d="M513.173 178.894C514.754 178.894 516.035 177.612 516.035 176.03C516.035 174.448 514.754 173.165 513.173 173.165C511.592 173.165 510.311 174.448 510.311 176.03C510.311 177.612 511.592 178.894 513.173 178.894Z" fill="#F47920"/>
<path d="M294.528 223.501C296.109 223.501 297.391 222.218 297.391 220.636C297.391 219.054 296.109 217.771 294.528 217.771C292.948 217.771 291.666 219.054 291.666 220.636C291.666 222.218 292.948 223.501 294.528 223.501Z" fill="#D1DE4B"/>
<path d="M208.903 184.713C210.484 184.713 211.766 183.431 211.766 181.848C211.766 180.266 210.484 178.984 208.903 178.984C207.323 178.984 206.041 180.266 206.041 181.848C206.041 183.431 207.323 184.713 208.903 184.713Z" fill="#2525BD"/>
</g>
<defs>
<linearGradient id="paint0_linear_640_385" x1="468.172" y1="276.856" x2="477.32" y2="423.108" gradientUnits="userSpaceOnUse">
<stop stop-color="#FCAF17"/>
<stop offset="1" stop-color="#F47920"/>
</linearGradient>
<linearGradient id="paint1_linear_640_385" x1="457.437" y1="160.959" x2="457.818" y2="152.248" gradientUnits="userSpaceOnUse">
<stop stop-color="#FBC4AF"/>
<stop offset="1" stop-color="#EA8B69"/>
</linearGradient>
<linearGradient id="paint2_linear_640_385" x1="459.127" y1="164.665" x2="458.841" y2="158.476" gradientUnits="userSpaceOnUse">
<stop stop-color="#FBC4AF"/>
<stop offset="1" stop-color="#EA8B69"/>
</linearGradient>
<linearGradient id="paint3_linear_640_385" x1="440.041" y1="211.384" x2="446.902" y2="166.824" gradientUnits="userSpaceOnUse">
<stop stop-color="#FBC4AF"/>
<stop offset="1" stop-color="#EA8B69"/>
</linearGradient>
<linearGradient id="paint4_linear_640_385" x1="478.366" y1="157.635" x2="483.702" y2="185.754" gradientUnits="userSpaceOnUse">
<stop stop-color="#FBC4AF"/>
<stop offset="1" stop-color="#EA8B69"/>
</linearGradient>
<clipPath id="clip0_640_385">
<rect width="687.243" height="489" fill="white"/>
</clipPath>
</defs>
</svg>
